<svg width="81" height="81" viewBox="0 0 81 81" fill="none" xmlns="http://www.w3.org/2000/svg">
<g filter="url(#filter0_d)">
<circle cx="40.5" cy="38.5" r="38.5" fill="white"/>
</g>
<path d="M28.8921 30.3627C28.8921 30.8462 29.1367 31.0879 29.3813 31.0879H40.3885C40.6331 31.0879 41.1223 30.8462 41.1223 30.3627C41.1223 30.1209 40.8777 29.8792 40.6331 29.8792H29.3813C29.1367 29.8792 28.8921 30.1209 28.8921 30.3627Z" fill="#80C3E7"/>
<path d="M58 41.7253C58 41.4835 58 41.4835 57.7554 41.4835L50.4173 34.2308C50.4173 34.2308 50.1727 34.2308 50.1727 33.989C50.1727 33.989 50.1727 33.989 49.9281 33.989H37.6979C36.964 34.2308 36.2302 34.956 36.2302 35.9231V61.0659C36.2302 62.033 36.964 62.7582 37.9425 62.7582H56.2878C57.2662 62.7582 58 62.033 58 61.0659V41.7253C58 41.967 58 41.7253 58 41.7253ZM50.6619 36.1648L55.7986 41.2418H51.1511C50.9065 41.2418 50.6619 41 50.6619 40.7582V36.1648ZM56.777 61.0659C56.777 61.3077 56.5324 61.5495 56.2878 61.5495H37.9425C37.6979 61.5495 37.4532 61.3077 37.4532 61.0659V35.9231C37.4532 35.6813 37.6979 35.4396 37.9425 35.4396H49.4389V40.7582C49.4389 41.7253 50.1727 42.4506 51.1511 42.4506H56.5324V61.0659H56.777Z" fill="#80C3E7"/>
<path d="M41.1223 45.5934C41.1223 45.8352 41.3669 46.077 41.6115 46.077H52.6187C52.8633 46.077 53.1079 45.8352 53.1079 45.5934C53.1079 45.3517 52.8633 45.1099 52.6187 45.1099H41.6115C41.3669 44.8682 41.1223 45.1099 41.1223 45.5934Z" fill="#80C3E7"/>
<path d="M52.6187 49.7033H41.6115C41.3669 49.7033 41.1223 49.9451 41.1223 50.4286C41.1223 50.6703 41.3669 50.9121 41.6115 50.9121H52.6187C52.8633 50.9121 53.1079 50.6703 53.1079 50.4286C53.1079 49.9451 52.8633 49.7033 52.6187 49.7033Z" fill="#80C3E7"/>
<path d="M52.6187 54.5385H41.6115C41.3669 54.5385 41.1223 54.7802 41.1223 55.2637C41.1223 55.5055 41.3669 55.7472 41.6115 55.7472H52.6187C52.8633 55.7472 53.1079 55.5055 53.1079 55.2637C53.1079 54.7802 52.8633 54.5385 52.6187 54.5385Z" fill="#80C3E7"/>
<path d="M33.5396 46.5604H25.7122C25.4676 46.5604 25.223 46.3187 25.223 46.0769V20.6923C25.223 20.4505 25.4676 20.2088 25.7122 20.2088H37.2086V25.5275C37.2086 26.4945 37.9424 27.2198 38.9209 27.2198H44.3022V31.5714H45.5252V26.7363C45.5252 26.7363 45.5252 26.7363 45.5252 26.4945C45.5252 26.4945 45.5252 26.2527 45.2806 26.2527L37.9424 19C37.9424 19 37.6978 19 37.6978 18.7582C37.6978 18.7582 37.6978 18.7582 37.4532 18.7582H25.223C24.7338 19 24 19.7253 24 20.6923V45.8352C24 46.8022 24.7338 47.5275 25.7122 47.5275H33.5396V46.5604ZM38.6763 20.9341L43.813 26.2527H39.1655C38.9209 26.2527 38.6763 26.011 38.6763 25.5275V20.9341Z" fill="#80C3E7"/>
<path d="M34.518 34.7143H29.3813C29.1367 34.7143 28.8921 34.9561 28.8921 35.1978C28.8921 35.4396 29.1367 35.9231 29.3813 35.9231H33.7842C34.0288 35.4396 34.2734 34.9561 34.518 34.7143Z" fill="#80C3E7"/>
<path d="M33.7842 39.3077H29.3813C29.1367 39.3077 28.8921 39.7912 28.8921 40.033C28.8921 40.2747 29.1367 40.5165 29.3813 40.5165H33.7842V39.3077Z" fill="#80C3E7"/>
<defs>
<filter id="filter0_d" x="0" y="0" width="81" height="81" filterUnits="userSpaceOnUse" color-interpolation-filters="sRGB">
<feFlood flood-opacity="0" result="BackgroundImageFix"/>
<feColorMatrix in="SourceAlpha" type="matrix" values="0 0 0 0 0 0 0 0 0 0 0 0 0 0 0 0 0 0 127 0"/>
<feOffset dy="2"/>
<feGaussianBlur stdDeviation="1"/>
<feColorMatrix type="matrix" values="0 0 0 0 0 0 0 0 0 0 0 0 0 0 0 0 0 0 0.12 0"/>
<feBlend mode="normal" in2="BackgroundImageFix" result="effect1_dropShadow"/>
<feBlend mode="normal" in="SourceGraphic" in2="effect1_dropShadow" result="shape"/>
</filter>
</defs>
</svg>
