<svg width="81" height="81" viewBox="0 0 81 81" fill="none" xmlns="http://www.w3.org/2000/svg">
<g filter="url(#filter0_d)">
<circle cx="40.5" cy="38.5" r="38.5" fill="white"/>
</g>
<g opacity="0.5">
<path d="M57.3859 28.0983C57.3859 28.0983 57.3859 27.9125 57.3859 28.0983C57.3859 27.9125 57.1983 27.7268 57.1983 27.7268L45.941 16.582C45.941 16.582 45.7534 16.3963 45.5658 16.3963H45.3781H45.1905H26.4283C24.9274 16.2105 23.614 17.5108 23.614 18.9967V58.0033C23.614 59.4893 24.9274 60.7895 26.4283 60.7895H54.5716C56.0726 60.7895 57.3859 59.4893 57.3859 58.0033V28.284V28.0983ZM46.1286 19.3682L54.1964 27.3553H47.0667C46.5039 27.3553 46.1286 26.9838 46.1286 26.4265V19.3682ZM55.5097 58.0033C55.5097 58.5605 55.1345 58.932 54.5716 58.932H26.4283C25.8655 58.932 25.4902 58.5605 25.4902 58.0033V18.9967C25.4902 18.4395 25.8655 18.068 26.4283 18.068H44.2524V26.4265C44.2524 27.9125 45.5658 29.2127 47.0667 29.2127H55.5097V58.0033Z" fill="#0087CF"/>
<path d="M31.1189 33.8564C31.1189 34.4136 31.4941 34.7851 32.057 34.7851H48.943C49.5058 34.7851 49.8811 34.4136 49.8811 33.8564C49.8811 33.2991 49.5058 32.9276 48.943 32.9276H32.057C31.4941 32.9276 31.1189 33.2991 31.1189 33.8564Z" fill="#0087CF"/>
<path d="M48.943 40.3575H32.057C31.4941 40.3575 31.1189 40.729 31.1189 41.2862C31.1189 41.8434 31.4941 42.2149 32.057 42.2149H48.943C49.5058 42.2149 49.8811 41.8434 49.8811 41.2862C49.8811 40.729 49.5058 40.3575 48.943 40.3575Z" fill="#0087CF"/>
<path d="M48.943 47.7873H32.057C31.4941 47.7873 31.1189 48.1588 31.1189 48.716C31.1189 49.2733 31.4941 49.6447 32.057 49.6447H48.943C49.5058 49.6447 49.8811 49.2733 49.8811 48.716C49.8811 48.1588 49.5058 47.7873 48.943 47.7873Z" fill="#0087CF"/>
</g>
<defs>
<filter id="filter0_d" x="0" y="0" width="81" height="81" filterUnits="userSpaceOnUse" color-interpolation-filters="sRGB">
<feFlood flood-opacity="0" result="BackgroundImageFix"/>
<feColorMatrix in="SourceAlpha" type="matrix" values="0 0 0 0 0 0 0 0 0 0 0 0 0 0 0 0 0 0 127 0"/>
<feOffset dy="2"/>
<feGaussianBlur stdDeviation="1"/>
<feColorMatrix type="matrix" values="0 0 0 0 0 0 0 0 0 0 0 0 0 0 0 0 0 0 0.12 0"/>
<feBlend mode="normal" in2="BackgroundImageFix" result="effect1_dropShadow"/>
<feBlend mode="normal" in="SourceGraphic" in2="effect1_dropShadow" result="shape"/>
</filter>
</defs>
</svg>
